# xmcd
#
# Track frame offsets: 
#        150
#        18366
#        34055
#        50634
#        68262
#        86790
#        102995
#        121448
#        136902
#        155656
#        172460
#        189189
#        208319
#        225348
#        241852
#        258282
#
# Disc length: 3661 seconds
#
# Revision: 0
# Processed by: cddbd v1.5.1PL0 Copyright (c) Steve Scherf et al.
# Submitted via: ExactAudioCopy v0.95b2
#
DISCID=d80e4b10
DTITLE=Меладзе Валерий - Иностранец
DYEAR=1900
DGENRE=Pop
TTITLE0=Иностранец
TTITLE1=Салют, Вера!
TTITLE2=Осколки Лета
TTITLE3=Се Ля Ви
TTITLE4=В Двух Шагах От Рая
TTITLE5=Магдалина
TTITLE6=Не Уходи
TTITLE7=Лили-Анаконда
TTITLE8=Я Не Могу Без Тебя
TTITLE9=Переменится Ветер
TTITLE10=Текила-Любовь
TTITLE11=Комедиант
TTITLE12=Спрячем Слёзы От Посторонних
TTITLE13=Сделай Это Прямо Сейчас
TTITLE14=Океан И Три Реки (& Виа Гра)
TTITLE15=Чего Не Могут Люди
EXTD=
EXTT0=
EXTT1=
EXTT2=
EXTT3=
EXTT4=
EXTT5=
EXTT6=
EXTT7=
EXTT8=
EXTT9=
EXTT10=
EXTT11=
EXTT12=
EXTT13=
EXTT14=
EXTT15=
PLAYORDER=
